<mxfile host="app.diagrams.net" modified="2023-08-21T07:39:32.423Z" agent="Mozilla/5.0 (Windows NT 10.0; Win64; x64) AppleWebKit/537.36 (KHTML, like Gecko) Chrome/116.0.0.0 Safari/537.36" version="21.6.6" etag="IUF9cWn-Y2D6O1pQ8uIZ" type="github">
  <diagram name="Page-1" id="WmXwHaxO9879yb62kz3U">
    <mxGraphModel>
      <root>
        <mxCell id="0" />
        <mxCell id="1" parent="0" />
      </root>
    </mxGraphModel>
  </diagram>
</mxfile>
